<?xml version="1.0" encoding="utf-8"?>
<!-- Generator: Adobe Illustrator 15.1.0, SVG Export Plug-In . SVG Version: 6.00 Build 0)  -->
<!DOCTYPE svg PUBLIC "-//W3C//DTD SVG 1.1//EN" "http://www.w3.org/Graphics/SVG/1.1/DTD/svg11.dtd">
<svg version="1.1" xmlns="http://www.w3.org/2000/svg" xmlns:xlink="http://www.w3.org/1999/xlink" x="0px" y="0px" width="42px"
	 height="42px" viewBox="0 0 42 42" enable-background="new 0 0 42 42" xml:space="preserve">
<g id="Layer_1">
	<g>
		<g>
			<g>
				<path fill="#35353D" d="M16.75,36.933c-0.014-0.069-0.044-0.005-0.313,0.107c-0.267,0.114-0.544-0.005-0.802-0.158
					s-0.254-0.2-0.588-0.106c-0.336,0.088-0.426,0.352-0.373,0.45c0.218-0.334,0.385-0.339,0.385-0.339
					c0.019,0.005,0.019,0.041-0.045,0.153c-0.063,0.114-0.389,0.594-0.661,0.729c-0.271,0.138-0.843,0.232-1.364,0.427
					c-0.521,0.194-0.308,0.295,0.213,0.33c0.521,0.035,1.618,0.068,1.876,0.022c0.259-0.045,0.502-0.253,0.688-0.398
					c0.187-0.146,0.358-0.182,0.422-0.095s0.345,0.1,0.521,0.022c0.177-0.076,0.344-0.144,0.23-0.386
					C16.827,37.452,16.764,37.001,16.75,36.933z"/>
				<path fill="#35353D" d="M21.78,37.235c-0.006-0.332-0.031-0.34-0.248-0.436c-0.217-0.096-0.466-0.122-0.72,0
					c-0.084,0.067-0.127,0.013-0.229,0.454c-0.103,0.44-0.472,1.116-0.508,1.358s0.12,0.496,0.907,0.369
					c0.786-0.127,0.942-0.218,0.888-0.726C21.815,37.749,21.786,37.567,21.78,37.235z"/>
			</g>
		</g>
		<g>
			<path fill="none" d="M16.942,4.495c0.243,0.172,0.448,0.365,0.834,0.097c0.387-0.27,0.662-0.387,0.59-0.525
				c-0.073-0.14-0.593-0.499-0.946-0.451c-0.175,0.021-0.401,0.178-0.52,0.369C16.782,4.174,16.7,4.322,16.942,4.495z"/>
			<path fill="none" d="M15.598,5.899c0.686-0.048,0.55-0.444,0.393-0.58s-0.563-0.19-0.735,0.184
				C15.083,5.878,15.462,5.909,15.598,5.899z"/>
			<path fill="none" d="M15.561,4.622c0.163-0.133,0.293-0.312,0.293-0.52c0-0.209-0.061-0.215-0.142-0.224
				c-0.158-0.017-0.314,0.054-0.329,0.405C15.368,4.633,15.398,4.754,15.561,4.622z"/>
			<path fill="none" d="M20.39,5.346c0.238-0.042,0.399-0.468,0.384-0.822c-0.016-0.353-0.173-0.52-0.508-0.501
				c-0.137,0.007-0.474,0.051-0.454,0.667C19.833,5.241,20.151,5.389,20.39,5.346z"/>
			<path fill="none" d="M15.869,5.921c-0.147,0-0.544,0.09-0.435,0.117c0.108,0.027,0.546-0.051,1.147,0.063
				c0.603,0.115,0.941,0.163,0.941,0.163S16.627,5.962,15.869,5.921z"/>
			<path fill="none" d="M18.549,6.679c-0.189,0.123-0.421,0.322-1.065,0.309c-0.644-0.014-0.892-0.004-0.892-0.004
				c0,0.168,0.24,0.294,0.29,0.63c0.05,0.334,0.041,0.743,0.072,0.933c0.031,0.19,0.186,0.3,0.218,0.186
				c0.032-0.113,0.135-0.842,0.693-1.26c0.62-0.444,0.896-0.598,0.92-0.743C18.808,6.583,18.739,6.557,18.549,6.679z"/>
			<path fill="none" d="M18.274,12.918c0,0,0.206,1.625-0.073,2.339c-0.277,0.713-0.616,1.081-1.891,2.139
				c-1.161,1.009-1.48,1.239-1.252,2.798c0.207,1.334,0.466,1.879,0.719,1.879c-0.15-0.066-0.283-0.229-0.398-1.142
				c-0.114-0.913-0.139-1.868,0.338-2.399c0.478-0.532,1.819-1.656,2.351-2.249c0.532-0.591,0.61-1.341,0.508-2.12
				C18.474,13.383,18.353,13.1,18.274,12.918z"/>
			<path fill="#35353D" d="M11.108,28.104c-0.109,1.445-0.394,5.028-0.429,6.309c-0.043,1.433-0.068,1.493-0.018,1.596
				c0.048,0.103,0.078,0.107,0.078,0.29c0,0.181-0.121,1.728-0.078,1.733c0.042,0.006,0.133-0.102,0.157-0.247
				c0.023-0.146,0.103-1.469,0.168-1.589c0.067-0.122,0.109-0.158,0.164-0.358c0.054-0.198,0.514-2.942,0.634-4.48
				c0.122-1.542,0.321-3.006,0.375-3.833c0.022-0.339,0.024-0.548,0.034-0.718l-0.906-0.111
				C11.246,26.921,11.176,27.3,11.108,28.104z"/>
		</g>
		<g>
			<path fill="#35353D" d="M34.058,36.136c-0.458-0.524-1.094-0.575-2.724-0.594c-1.953-0.089-3.325-0.108-5.107-1.455
				c-1.003-0.811-1.668-1.915-2.235-3.416c-0.568-1.499-0.918-2.351-1.426-3.87c0,0-1.275-4.068-1.457-4.949
				c-0.182-1.198-0.471-3.772-0.628-5.005c-0.387,0.254-0.786,0.496-1.136,0.556c0.556-0.411,1.668-1.222,1.692-2.079
				c0.024-0.858,0.085-2.707-0.278-3.988c-0.362-1.281-0.677-1.849-0.712-2.38c0.012-0.57,0.121-3.107,0.156-3.216
				c0.037-0.108,0.065-0.162,0.329-0.261c0.262-0.101,0.512-0.349,0.507-0.83c-0.004-0.48-0.105-0.607-0.771-0.757
				c-0.667-0.15-0.685-0.126-1.418-0.466c-0.735-0.34-1.713-0.363-2.488-0.087c-0.775,0.276-1.083,0.477-1.115,0.97
				c-0.032,0.495,0.032,0.702-0.045,0.834c-0.077,0.132-0.273,0.349-0.131,0.702c0.14,0.354,0.457,0.716,0.733,0.988
				c0.385,0.378,0.955,0.514,0.967,0.816c0.031,0.472,0.07,0.995,0.003,1.269c-0.006,0.237-0.028,0.603-0.028,0.603
				s-0.802,0.526-0.856,0.413c-0.002-0.1-0.004-0.201-0.006-0.302c-0.468,0.314-0.979,0.694-1.102,1.026
				c-0.229,0.624-0.235,1.615-0.35,2.067c-0.116,0.296-0.49,0.833-1.059,3.251c-0.549,2.242-0.627,2.924-0.827,4.158
				c-0.32,0.356-0.225,0.32-0.363,1.311c-0.139,1.118-0.133,1.396-0.168,1.396c-0.037,0-0.201-0.097-0.212,0.127
				c-0.012,0.226,0.011,0.489-0.158,0.755s-0.314,0.253-0.333,0.437c-0.018,0.181,0.073,0.107-0.09,0.225
				c-0.163,0.112-0.019,0.288-0.253,0.371c-0.236,0.085-0.26,0.141-0.206,0.224c0.055,0.086,0.544,1.206,0.557,1.421
				c0.001,0.027,0,0.052-0.001,0.079c0.103,0.005,0.579,0.023,0.907,0.084c0.03-0.138,0.081-0.28,0.182-0.494
				c0.266-0.567,0.417-0.919,0.386-0.972c-0.03-0.056-0.296-0.206-0.338-0.286c-0.042-0.079,0.066-1.879,0.066-1.879
				s-0.132,0.175-0.132,0.024s0.187-1.995,0.235-2.151c0.048-0.157,0.085,0.061,0.296-0.157c0.211-0.218,0.223-0.297,0.533-0.176
				c0.308,0.121,0.489,0.436,0.386,0.792c-0.102,0.355-0.253,0.488-0.084,0.562c0.169,0.072,0.441-0.108,0.453-0.677
				c0.012-0.568-0.309-0.84-0.809-1.063c0.319-0.544,0.556-1.034,0.713-1.808c0.157-0.774,0.313-0.895,0.313-0.895
				s0.042,0.224,0.103,1.777c0.061,1.553,0.079,4.05,0.29,5.553s0.363,2.048,0.761,3.529c0.394,1.56,0.436,1.386,0.375,3.396
				c-0.061,2.018-0.188,3.893-0.471,4.611c0.73,0.12,1.541,0.308,1.541,0.308s-0.109-0.87,0.266-2.206
				c0.375-1.335,0.573-2.949,0.743-3.868c0.169-0.918,0.249-0.99-0.03-1.878c-0.278-0.891-0.508-1.71-0.646-2.738
				c-0.14-1.028-0.079-1.354-0.079-1.354s0.436,2,0.924,3.481c0.49,1.49,0.907,2.65,1.463,4.061
				c0.556,1.407,0.948,2.301,1.026,3.142c0.079,0.84,0.066,1.16,0.066,1.16h1.003c0,0,0.181-2.446,0.097-4.029
				c-0.084-1.584-0.181-3.004-0.181-3.004s0.175,0.436,0.314,1.269c0.107,0.708,0.139,0.756,0.882,1.899
				c0.84,1.178,1.686,2.313,2.925,3.08s1.675,0.9,3.945,0.926c2.273,0.023,2.719,0.046,2.931,0.203
				c0.214,0.159,0.073,0.285-0.287,0.605c-0.365,0.321-0.588,0.677-0.273,0.755c0.315,0.08,1.34-0.266,1.716-0.521
				C34.203,37.288,34.518,36.661,34.058,36.136z M20.266,4.023c0.335-0.018,0.492,0.148,0.508,0.501
				c0.015,0.354-0.146,0.78-0.384,0.822c-0.239,0.043-0.556-0.105-0.578-0.656C19.792,4.074,20.128,4.03,20.266,4.023z M16.9,3.984
				c0.118-0.191,0.344-0.348,0.52-0.369c0.354-0.047,0.874,0.312,0.946,0.451c0.072,0.139-0.203,0.256-0.59,0.525
				c-0.386,0.269-0.591,0.076-0.834-0.097C16.7,4.322,16.782,4.174,16.9,3.984z M15.383,4.283c0.015-0.351,0.171-0.422,0.329-0.405
				c0.081,0.009,0.142,0.015,0.142,0.224c0,0.208-0.13,0.387-0.293,0.52C15.398,4.754,15.368,4.633,15.383,4.283z M15.255,5.503
				c0.172-0.374,0.578-0.32,0.735-0.184s0.292,0.532-0.393,0.58C15.462,5.909,15.083,5.878,15.255,5.503z M15.435,6.039
				c-0.109-0.027,0.287-0.117,0.435-0.117c0.758,0.041,1.653,0.344,1.653,0.344s-0.338-0.048-0.941-0.163
				C15.981,5.987,15.542,6.065,15.435,6.039z M18.069,16.284c-0.531,0.593-1.873,1.717-2.351,2.249
				c-0.477,0.531-0.453,1.486-0.338,2.399c0.115,0.913,0.248,1.075,0.398,1.142c-0.253,0-0.513-0.545-0.719-1.879
				c-0.229-1.559,0.091-1.789,1.252-2.798c1.274-1.058,1.614-1.426,1.891-2.139c0.278-0.713,0.073-2.339,0.073-2.339
				c0.079,0.181,0.199,0.465,0.303,1.245C18.679,14.942,18.601,15.692,18.069,16.284z M17.262,11.722c0,0,0.369,0.291,1.043,0.852
				c-0.344-0.024-1.475-0.236-1.475-0.236L17.262,11.722z M17.258,8.759c0.331-0.354,1.169-0.702,1.31-0.643
				c0.04,0.321,0.05,2.043-0.05,2.062c-0.1,0.018-1.273-0.685-1.277-0.725C17.235,9.412,17.25,8.841,17.258,8.759z M18.785,6.729
				c-0.023,0.145-0.3,0.299-0.92,0.743c-0.533,0.399-0.651,1.081-0.688,1.24c0.004,0.005,0.008,0.01,0.008,0.016
				c0.009,0.073,0.04,0.688-0.108,0.721c-0.15,0.032-0.255-0.045-0.258-0.335c-0.005-0.29,0.014-0.408,0.04-0.413
				c0.005-0.02,0.068-0.031,0.137-0.031c-0.018-0.035-0.033-0.076-0.042-0.123c-0.032-0.19-0.022-0.598-0.072-0.933
				c-0.049-0.336-0.29-0.462-0.29-0.63c0,0,0.248-0.009,0.892,0.004c0.644,0.014,0.875-0.186,1.065-0.309
				C18.739,6.557,18.808,6.583,18.785,6.729z"/>
			<path fill="#35353D" d="M18.473,10.038c-0.036-0.336-0.077-0.476-0.046-1.016c0.033-0.539,0.014-0.693,0.014-0.693
				s-0.1,0.146-0.096,0.825C18.35,9.833,18.399,9.992,18.473,10.038z"/>
		</g>
	</g>
</g>
<g id="Layer_2" display="none">
	<polygon display="inline" fill="#00B0CE" points="11.104,14.953 15.125,28.209 30.791,28.209 30.791,27.042 16.208,26.959 
		15.625,24.959 30.541,24.959 31.584,16 12.667,16 12.083,14.042 7.583,14.042 7.583,14.958 	"/>
	<circle display="inline" fill="#00B0CE" cx="17.625" cy="30.979" r="2"/>
	<circle display="inline" fill="#00B0CE" cx="28.104" cy="30.979" r="2"/>
	<path display="inline" fill="#00B0CE" d="M29.646,7c-2.75,0-4.979,1.334-4.979,2.979c0,1.645,2.229,2.979,4.979,2.979
		s4.979-1.334,4.979-2.979C34.625,8.334,32.396,7,29.646,7z M29.604,12c-1.092,0-1.979-0.886-1.979-1.979s0.887-1.979,1.979-1.979
		c1.094,0,1.98,0.886,1.98,1.979S30.697,12,29.604,12z"/>
	<circle display="inline" fill="#00B0CE" cx="29.584" cy="10" r="1"/>
</g>
<g id="Layer_2_copy" display="none">
	<polygon display="inline" fill="#00B0CE" points="11.104,14.953 15.125,28.209 30.791,28.209 30.791,27.042 16.208,26.959 
		15.625,24.959 30.541,24.959 31.584,16 12.667,16 12.083,14.042 7.583,14.042 7.583,14.958 	"/>
	<circle display="inline" fill="#00B0CE" cx="17.625" cy="30.979" r="2"/>
	<circle display="inline" fill="#00B0CE" cx="28.104" cy="30.979" r="2"/>
</g>
</svg>
